<?xml version="1.0" encoding="utf-8"?>
<!-- Generator: Adobe Illustrator 27.5.0, SVG Export Plug-In . SVG Version: 6.00 Build 0)  -->
<svg version="1.1" xmlns="http://www.w3.org/2000/svg" xmlns:xlink="http://www.w3.org/1999/xlink" x="0px" y="0px"
	 viewBox="0 0 500 500" style="enable-background:new 0 0 500 500;" xml:space="preserve">
<g id="background">
</g>
<g id="designed_by_freepik">
	<g style="opacity:0.6;">
		<g id="XMLID_319_">
			<g id="XMLID_338_">
				<path id="XMLID_346_" style="fill:#294944;" d="M260.104,467.465c-0.432,0.443-0.803,0.931-1.108,1.453l-0.465-0.241
					c-0.067-0.298-0.349-0.503-0.659-0.466c-0.331,0.039-0.568,0.339-0.529,0.67c0.039,0.331,0.339,0.568,0.67,0.529
					c0.066-0.008,0.127-0.026,0.184-0.052l0.451,0.234c-0.251,0.554-0.433,1.139-0.539,1.744l0.747,0.132
					c0.23-1.306,0.85-2.507,1.792-3.473L260.104,467.465z"/>
				<path id="XMLID_345_" style="fill:#294944;" d="M265.592,465.163c-0.171,0-0.341,0.006-0.51,0.017l-0.074-0.626
					c0.188-0.149,0.296-0.389,0.266-0.645c-0.046-0.393-0.402-0.674-0.795-0.628c-0.393,0.046-0.674,0.402-0.628,0.795
					c0.03,0.254,0.189,0.461,0.404,0.564l0.074,0.624c-0.714,0.116-1.403,0.332-2.06,0.646l0.327,0.684
					c0.934-0.447,1.942-0.673,2.995-0.673c0.496,0,0.993,0.053,1.475,0.158l0.161-0.741
					C266.692,465.222,266.142,465.163,265.592,465.163z"/>
				<path id="XMLID_344_" style="fill:#294944;" d="M272.194,467.711c0.331-0.04,0.566-0.341,0.526-0.672
					c-0.04-0.331-0.341-0.566-0.672-0.526c-0.309,0.038-0.535,0.304-0.53,0.609l-0.416,0.363c-0.418-0.43-0.889-0.813-1.408-1.139
					l-0.404,0.641c1.134,0.715,2.021,1.726,2.563,2.925l0.69-0.313c-0.251-0.554-0.567-1.072-0.942-1.545l0.402-0.351
					C272.065,467.716,272.129,467.719,272.194,467.711z"/>
				<path id="XMLID_343_" style="fill:#294944;" d="M265.044,475.372c-0.386,0.023-0.775,0.035-1.157,0.035
					c-0.88,0-1.733-0.061-2.478-0.179c-0.39-0.062-0.846-0.155-1.27-0.292c1.046,1.861,3.069,3.125,5.388,3.125
					c2.855,0,5.262-1.916,5.95-4.504c-0.682,0.449-1.505,0.825-2.459,1.123C267.839,475.047,266.463,475.286,265.044,475.372z"/>
				<path id="XMLID_339_" style="fill:#294944;" d="M265.592,466.68c-3.352,0-6.08,2.666-6.08,5.943
					c0,0.426,0.046,0.849,0.137,1.261c0.673,0.483,2.706,0.89,5.348,0.731c2.879-0.173,5.297-0.957,6.672-2.159
					c-0.006-0.195-0.021-0.39-0.045-0.582C271.244,468.913,268.65,466.68,265.592,466.68z M263.432,473.194
					c-1.02,0-1.85-0.83-1.85-1.85c0-1.02,0.83-1.85,1.85-1.85c1.02,0,1.85,0.83,1.85,1.85
					C265.282,472.365,264.452,473.194,263.432,473.194z M268.17,472.286c-0.75,0-1.36-0.61-1.36-1.36s0.61-1.361,1.36-1.361
					c0.75,0,1.361,0.61,1.361,1.361S268.92,472.286,268.17,472.286z"/>
			</g>
			<path id="XMLID_336_" style="fill:#294944;" d="M281.595,468.547c-0.295-0.116-0.805-0.309-1.382-0.237
				c-0.551,0.069-0.844,0.341-0.844,1.007v0.866h2.228v1.717h-2.228v5.455h-1.932v-5.455h-1.34v-1.717h1.34v-0.888
				c0-1.68,0.896-2.783,2.568-2.783c0.643,0,1.157,0.122,1.59,0.308L281.595,468.547z"/>
			<path id="XMLID_334_" style="fill:#294944;" d="M286.298,471.879c-0.177-0.03-0.358-0.046-0.526-0.046
				c-0.896,0-1.51,0.548-1.51,1.614v3.908h-1.932v-7.172h1.873v0.785c0.451-0.673,1.14-0.977,2.021-0.977
				c0.414,0,0.848,0.128,1.094,0.337L286.298,471.879z"/>
			<path id="XMLID_331_" style="fill:#294944;" d="M293.965,473.757c0,0.222-0.015,0.489-0.037,0.651h-5.085
				c0.207,1.036,0.933,1.488,1.843,1.488c0.622,0,1.295-0.252,1.813-0.688l1.133,1.243c-0.814,0.748-1.85,1.088-3.057,1.088
				c-2.198,0-3.723-1.495-3.723-3.753c0-2.258,1.48-3.797,3.627-3.797C292.544,469.99,293.958,471.522,293.965,473.757z
				 M288.851,473.091h3.175c-0.177-0.918-0.733-1.436-1.562-1.436C289.554,471.655,289.021,472.203,288.851,473.091z"/>
			<path id="XMLID_328_" style="fill:#294944;" d="M301.618,473.757c0,0.222-0.015,0.489-0.037,0.651h-5.085
				c0.207,1.036,0.932,1.488,1.843,1.488c0.622,0,1.295-0.252,1.814-0.688l1.132,1.243c-0.814,0.748-1.85,1.088-3.057,1.088
				c-2.198,0-3.723-1.495-3.723-3.753c0-2.258,1.48-3.797,3.627-3.797C300.197,469.99,301.611,471.522,301.618,473.757z
				 M296.504,473.091h3.175c-0.178-0.918-0.733-1.436-1.562-1.436C297.207,471.655,296.674,472.203,296.504,473.091z"/>
			<path id="XMLID_325_" style="fill:#294944;" d="M309.964,473.764c0,2.154-1.495,3.775-3.471,3.775
				c-0.962,0-1.643-0.378-2.109-0.933v3.708h-1.924v-10.133h1.887v0.792c0.466-0.585,1.155-0.984,2.139-0.984
				C308.469,469.99,309.964,471.61,309.964,473.764z M304.287,473.764c0,1.132,0.747,1.976,1.843,1.976
				c1.14,0,1.85-0.881,1.85-1.976c0-1.095-0.71-1.976-1.85-1.976C305.035,471.788,304.287,472.632,304.287,473.764z"/>
			<path id="XMLID_322_" style="fill:#294944;" d="M313.068,467.836c0,0.696-0.54,1.229-1.236,1.229
				c-0.696,0-1.229-0.533-1.229-1.229c0-0.696,0.533-1.243,1.229-1.243C312.527,466.592,313.068,467.14,313.068,467.836z
				 M312.809,477.354h-1.932v-7.172h1.932V477.354z"/>
			<path id="XMLID_320_" style="fill:#294944;" d="M316.032,472.736l2.701-2.554h2.368l-3.479,3.375l3.501,3.797h-2.376
				l-2.716-2.901v2.901H314.1v-10.658h1.932V472.736z"/>
		</g>
		<g>
			<path style="fill:#294944;" d="M184.412,477.289v-1.055c-0.527,0.718-1.391,1.23-2.388,1.23c-1.846,0-3.149-1.406-3.149-3.706
				c0-2.256,1.289-3.721,3.149-3.721c0.952,0,1.816,0.469,2.388,1.245v-3.765h1.099v9.77H184.412z M184.412,475.37v-3.208
				c-0.395-0.615-1.245-1.143-2.124-1.143c-1.421,0-2.27,1.172-2.27,2.739c0,1.567,0.85,2.724,2.27,2.724
				C183.168,476.483,184.017,475.986,184.412,475.37z"/>
			<path style="fill:#294944;" d="M186.932,473.744c0-2.051,1.465-3.706,3.486-3.706c2.139,0,3.398,1.67,3.398,3.794v0.279h-5.727
				c0.088,1.333,1.025,2.446,2.549,2.446c0.805,0,1.626-0.322,2.182-0.894l0.527,0.718c-0.703,0.703-1.655,1.084-2.812,1.084
				C188.44,477.465,186.932,475.956,186.932,473.744z M190.403,470.947c-1.509,0-2.256,1.274-2.314,2.358h4.643
				C192.718,472.25,192.015,470.947,190.403,470.947z"/>
			<path style="fill:#294944;" d="M194.607,476.351l0.571-0.791c0.469,0.542,1.362,1.011,2.329,1.011c1.084,0,1.67-0.513,1.67-1.216
				c0-1.714-4.38-0.659-4.38-3.281c0-1.098,0.952-2.036,2.636-2.036c1.201,0,2.051,0.454,2.622,1.026l-0.513,0.762
				c-0.424-0.513-1.201-0.894-2.109-0.894c-0.967,0-1.567,0.483-1.567,1.113c0,1.552,4.38,0.527,4.38,3.281
				c0,1.187-0.952,2.138-2.783,2.138C196.306,477.465,195.325,477.113,194.607,476.351z"/>
			<path style="fill:#294944;" d="M201.477,468.471c0-0.41,0.337-0.747,0.732-0.747c0.41,0,0.747,0.337,0.747,0.747
				c0,0.41-0.337,0.732-0.747,0.732C201.814,469.203,201.477,468.881,201.477,468.471z M201.667,477.289v-7.075h1.099v7.075H201.667
				z"/>
			<path style="fill:#294944;" d="M204.582,479.105l0.556-0.82c0.586,0.703,1.289,0.967,2.3,0.967c1.172,0,2.27-0.571,2.27-2.124
				v-1.011c-0.513,0.718-1.377,1.26-2.373,1.26c-1.845,0-3.149-1.377-3.149-3.662c0-2.27,1.289-3.677,3.149-3.677
				c0.952,0,1.802,0.469,2.373,1.245v-1.069h1.098v6.87c0,2.344-1.641,3.076-3.369,3.076
				C206.237,480.16,205.417,479.926,204.582,479.105z M209.709,475.253v-3.091c-0.381-0.615-1.23-1.143-2.109-1.143
				c-1.421,0-2.27,1.128-2.27,2.695c0,1.553,0.849,2.695,2.27,2.695C208.478,476.41,209.328,475.868,209.709,475.253z"/>
			<path style="fill:#294944;" d="M217.413,477.289v-4.629c0-1.245-0.63-1.641-1.582-1.641c-0.865,0-1.685,0.527-2.095,1.099v5.17
				h-1.099v-7.075h1.099v1.025c0.498-0.586,1.465-1.201,2.519-1.201c1.48,0,2.256,0.747,2.256,2.285v4.966H217.413z"/>
			<path style="fill:#294944;" d="M219.932,473.744c0-2.051,1.465-3.706,3.486-3.706c2.139,0,3.398,1.67,3.398,3.794v0.279h-5.727
				c0.088,1.333,1.025,2.446,2.549,2.446c0.806,0,1.626-0.322,2.183-0.894l0.527,0.718c-0.703,0.703-1.655,1.084-2.812,1.084
				C221.441,477.465,219.932,475.956,219.932,473.744z M223.404,470.947c-1.509,0-2.256,1.274-2.314,2.358h4.643
				C225.718,472.25,225.015,470.947,223.404,470.947z"/>
			<path style="fill:#294944;" d="M233.35,477.289v-1.055c-0.527,0.718-1.392,1.23-2.388,1.23c-1.846,0-3.149-1.406-3.149-3.706
				c0-2.256,1.289-3.721,3.149-3.721c0.952,0,1.817,0.469,2.388,1.245v-3.765h1.098v9.77H233.35z M233.35,475.37v-3.208
				c-0.396-0.615-1.245-1.143-2.124-1.143c-1.421,0-2.27,1.172-2.27,2.739c0,1.567,0.849,2.724,2.27,2.724
				C232.105,476.483,232.954,475.986,233.35,475.37z"/>
			<path style="fill:#294944;" d="M239.692,477.289v-9.77h1.098v3.765c0.572-0.776,1.421-1.245,2.388-1.245
				c1.845,0,3.149,1.465,3.149,3.721c0,2.299-1.304,3.706-3.149,3.706c-0.996,0-1.86-0.513-2.388-1.23v1.055H239.692z
				 M242.9,476.483c1.436,0,2.285-1.157,2.285-2.724c0-1.568-0.85-2.739-2.285-2.739c-0.864,0-1.728,0.527-2.109,1.143v3.208
				C241.171,475.986,242.036,476.483,242.9,476.483z"/>
			<path style="fill:#294944;" d="M247.528,479.061c0.161,0.073,0.425,0.117,0.601,0.117c0.483,0,0.805-0.161,1.055-0.747
				l0.469-1.069l-2.959-7.148h1.187l2.358,5.8l2.344-5.8h1.201l-3.545,8.51c-0.425,1.025-1.143,1.421-2.08,1.435
				c-0.234,0-0.601-0.044-0.805-0.103L247.528,479.061z"/>
		</g>
	</g>
</g>
<g id="objects">
	<g>
		
			<ellipse transform="matrix(0.2336 -0.9723 0.9723 0.2336 -57.1614 441.0724)" style="fill:#91DDF2;" cx="251.209" cy="256.796" rx="78.93" ry="84.359"/>
		<g>
			<defs>
				
					<ellipse id="SVGID_1_" transform="matrix(0.2336 -0.9723 0.9723 0.2336 -57.1614 441.0724)" cx="251.209" cy="256.796" rx="78.93" ry="84.359"/>
			</defs>
			<clipPath id="SVGID_00000127733640337066453970000010613463575981719947_">
				<use xlink:href="#SVGID_1_"  style="overflow:visible;"/>
			</clipPath>
			<g style="clip-path:url(#SVGID_00000127733640337066453970000010613463575981719947_);">
				<path style="fill:#67B262;" d="M374.299,269.363l1.043-22.333c0.139-2.97-1.677-4.559-3.282-5.963l-26.511-23.181
					c0.137-0.602,0.156-1.232,0.048-1.87c-0.296-1.755-1.491-3.381-3.366-4.579l-20.713-13.222
					c-2.687-1.717-6.098-2.131-8.783-1.105c-2.952,0.94-4.457,3.126-3.958,5.757c0.038,0.251,0.098,0.507,0.179,0.764l2.807,11.022
					l-2.406,1.56c0.341-0.743,0.441-1.562,0.216-2.384l-2.835-10.337c-0.532-1.942-2.463-3.361-3.741-4.3
					c-0.058-0.043-0.117-0.086-0.174-0.128c-0.872-0.912-2.13-1.607-3.566-1.952c-1.857-0.446-3.794-0.254-5.21,0.512
					c-1.465,0.756-2.278,1.985-2.256,3.333l-1.8-0.256c-2.389-0.337-4.493,0.621-5.083,2.239c-0.198,0.466-0.271,0.964-0.216,1.488
					l0.261,2.401c0.165,1.533,1.223,2.656,1.856,3.328l0.246,0.266c0.606,0.686,1.442,1.219,2.391,1.56l-0.216,1.012
					c-0.512,2.392,1.693,4.893,5.018,5.691c0,0,0,0,0.001,0c0.47,0.113,0.942,0.17,1.411,0.2c-0.297,0.607-0.431,1.262-0.344,1.932
					l-1.09-0.41c-2.531-0.953-5.215-0.566-6.873,0.852l-7.534,6.44c-1.857,1.587-1.626,4.403,0.502,6.148l2.793,2.292l-8.953,0.198
					c-2.654,0.059-4.373,1.575-5.626,2.683c-0.195,0.171-0.367,0.329-0.513,0.439l-6.238,4.689
					c-2.766,2.078-3.382,5.515-3.877,8.276c-0.145,0.809-0.283,1.573-0.451,2.177c-0.05,0.182-0.131,0.381-0.213,0.594
					c-0.41,1.07-0.97,2.535-0.379,4.168l2.198,6.068c0.187,0.516,0.333,1.053,0.483,1.588c0.736,2.632,1.845,6.608,7.4,8.282
					l17.346,5.224l0.549,0.853l0.181,12.244l-4.422,4.973c-2.026,2.279-2.376,3.754-2.432,6.402l-0.385,18.063
					c-0.05,2.313,2.099,4.584,4.998,5.28c0.78,0.187,1.573,0.254,2.357,0.197l19.99-1.438c0.44-0.031,0.86-0.106,1.269-0.205
					c0.019,0.049,0.031,0.098,0.052,0.147c0.597,1.404,1.941,2.586,3.692,3.245c0.245,0.092,0.496,0.2,0.751,0.307
					c0.781,0.327,1.75,0.734,2.852,0.999c2.674,0.642,4.532,0.067,5.618-0.527l18.046-9.871c1.673-0.912,2.461-2.527,2.055-4.215
					l-1.959-8.153c-0.459-1.91-2.532-3.663-5.041-4.266c-0.097-0.023-0.194-0.036-0.291-0.056l14.985-10.658
					c1.286-0.916,1.921-2.282,1.75-3.678l12.657-2.618c1.511-0.312,2.717-1.153,3.304-2.305c0.245-0.482,0.375-0.995,0.389-1.519
					c0.148-0.132,0.284-0.273,0.407-0.424l6.423-7.837C373.835,273.332,374.182,271.858,374.299,269.363z M310.816,242.506
					l-6.784-2.01c0.865-0.321,1.641-0.781,2.227-1.443l2.003-2.259l0.997,0.43c0.874,0.376,1.913,0.621,2.905,0.732l2.376,3.479
					l-1.369,2.043C312.498,243.106,311.722,242.773,310.816,242.506z"/>
				<path style="fill:#67B262;" d="M234.55,166.605l0.807,4.503c0.857,4.776,4.069,7.814,5.795,9.446
					c0.122,0.115,0.241,0.225,0.347,0.331c1.892,2.047,4.448,3.537,7.21,4.201c4.121,0.99,8.333,0.149,11.551-2.304l7.275-5.54
					c3.861-2.939,5.608-7.685,4.556-12.387c-1.023-4.579-4.597-8.302-9.326-9.718l-11.195-3.352
					c-0.237-0.072-0.551-0.157-0.793-0.215c-1.101-0.264-2.236-0.399-3.379-0.401l0,0c-0.076,0-0.151,0-0.226,0.001
					c-0.119,0.001-0.242,0.004-0.368,0.008c-3.593,0.116-6.997,1.595-9.341,4.057c-2.124,2.231-3.271,5.081-3.285,8.111
					C234.152,164.441,234.277,165.537,234.55,166.605z M250.001,172.867c0.218,0.209,0.425,0.412,0.596,0.6
					c0.113,0.124,0.248,0.231,0.396,0.313c-0.066,0.018-0.127,0.047-0.193,0.064C250.513,173.535,250.25,173.206,250.001,172.867z
					 M258.145,164.669c0.119,0.177,0.25,0.391,0.384,0.639c-0.022,0.17-0.054,0.338-0.085,0.506
					c-3.21-0.961-6.419-1.922-9.629-2.883c0.031-0.068,0.056-0.137,0.089-0.204C252.044,162.051,255.568,162.775,258.145,164.669z"
					/>
				<path style="fill:#67B262;" d="M256.915,329.026l-10.162-15.853c-1.711-2.67-4.394-4.719-7.002-5.345
					c-3.281-0.788-6.601,0.571-9,3.437c-1.064,0.357-2.633,0.763-3.685,1.035c-5.882,1.521-12.548,3.245-15.55,11.241
					c-1.093,2.903-1.251,6.109-0.437,8.855c1.285,4.334,3.863,5.367,6.592,6.461c1.148,0.461,2.674,1.057,4.2,1.652
					c0.961,0.375,2.168,0.846,3.209,1.257c1.046,1.565,2.392,2.864,3.952,3.763c0.676,0.427,1.367,0.758,2.064,0.99l8.272,3.684
					c0.633,0.282,1.292,0.505,1.959,0.666c3.25,0.781,6.058-0.068,7.736-0.575c0.223-0.068,0.436-0.139,0.571-0.172
					c3.629-0.618,6.871-3.661,8.46-7.941C259.76,337.692,259.319,332.773,256.915,329.026z"/>
				<path style="fill:#67B262;" d="M196.523,293.865c1.151-0.533,2.456-1.137,3.592-1.984l8.244-6.14l8.267,0.813
					c2.136,0.208,4.073-0.825,4.936-2.635l3.642-7.646l6.453-4.467c1.635-1.131,2.273-3.077,1.662-5.079
					c-0.186-0.609-0.335-1.251-0.488-1.896c-0.659-2.788-1.479-6.257-4.909-8.357l-10.105-6.185
					c-0.975-2.927-1.947-5.712-3.773-8.578l-7.153-11.221c-0.638-0.999-1.739-1.749-3.021-2.057
					c-0.702-0.169-1.421-0.186-2.077-0.052l-4.118,0.844l1.063-1.738c0.635-1.037,0.747-2.322,0.308-3.527
					c-0.24-0.656-0.628-1.259-1.12-1.765c0.119-0.195,0.221-0.398,0.307-0.61c0.119,0.042,0.233,0.081,0.34,0.118
					c0.254,0.088,0.499,0.169,0.713,0.257c1.596,0.659,3.397,0.469,4.772-0.442c1.128-0.748,1.841-1.917,1.956-3.209l0.267-3.009
					l2.515-1.767c1.906-1.34,3.834-2.653,5.76-3.967l1.065-0.727l7.801,0.282c0.134,0.005,0.29,0.02,0.457,0.034
					c1.269,0.109,3.392,0.291,4.99-1.06l3.769-3.189c1.11-0.938,1.717-2.265,1.665-3.64c-0.003-0.079-0.008-0.158-0.016-0.237
					l6.39-1.605c1.194-0.3,2.171-1.042,2.751-2.088c0.626-1.131,0.729-2.553,0.275-3.802l-3.301-9.092
					c-0.588-1.619-2.153-2.813-3.981-3.074c0.195-1.228-0.175-2.49-1.047-3.523l-7.073-8.388c-0.703-0.834-1.685-1.436-2.766-1.695
					c-1.41-0.339-2.88-0.081-4.033,0.707l-44.429,30.371c-2.093,1.431-2.009,3.751-1.969,4.865c0.005,0.14,0.012,0.276,0.009,0.4
					l-0.174,12.589c-0.034,2.432,1.485,4.051,2.491,5.121c0.173,0.185,0.348,0.37,0.513,0.562l0.603,0.689
					c0.552,0.627,0.552,0.627,1.05,1.615l3.451,6.854c0.861,1.71,1.687,3.536,2.611,5.776c-1.349,1.7-2.759,3.62-3.115,5.968
					l-1.549,10.229c-0.241,1.591,0.434,3.123,0.927,4.24c0.102,0.23,0.201,0.446,0.268,0.634l1.552,4.316l-11.108,25.198
					c-1.369,3.104-0.956,4.785,0.488,7.375l5.033,9.032c0.708,1.27,1.918,2.192,3.321,2.529c2.173,0.522,4.371-0.399,5.466-2.291
					l4.757-8.217l3.471-1.813C195.599,294.292,196.058,294.08,196.523,293.865z"/>
			</g>
		</g>
	</g>
	<g>
		<circle style="fill:#222937;" cx="406.906" cy="314.296" r="11.336"/>
		
			<ellipse transform="matrix(0.9735 -0.2286 0.2286 0.9735 -70.446 97.193)" style="fill:#222937;" cx="384.235" cy="352.622" rx="11.336" ry="11.336"/>
		<path style="fill:#FF9E78;" d="M311.528,398.083c0,0,3.233-16.975,14.146-12.125c0,0,4.85-9.7,12.529-4.042
			s1.212,12.125,1.212,12.125s14.534,0.512,5.852,14.806C336.586,423.141,311.528,398.083,311.528,398.083z"/>
		<path style="fill:#FF9E78;" d="M311.209,397.743c0,0-13.686-10.549-18.628,0.322c0,0-10.066-4.035-12.053,5.294
			c-1.987,9.329,7.142,9.873,7.142,9.873s-10.53,10.03,5.451,14.958C309.101,433.117,311.209,397.743,311.209,397.743z"/>
		<path style="fill:#FCB64F;" d="M79.666,330.783c0,0,13.722-24.988,26.432-16.899c0,0,3.611,1.878,2.311,5.489
			c0,0,8.811-0.867,6.644,7.366l4.333,8.233l-36.976-1.3L79.666,330.783z"/>
		<path style="fill:#FCB64F;" d="M112.543,376.244c0,0,28.257-3.774,25.303-18.547c0,0-0.447-4.045-4.284-4.137
			c0,0,3.99-7.904-4.47-8.856l-6.113-7.014l-12.139,34.951L112.543,376.244z"/>
		<path style="fill:#222937;" d="M135.533,150.758c0,0,1.058,4.751-5.601,4.036c0,0-4.208,9.933-11.277,2.612
			c0,0-9.978,9.592-14.848-2.918c0,0-8.799,1.467-5.1-6.17c0,0-11.044-1.42-7.546-14.352c0,0-7.06-1.46-1.818-6.969
			c0,0-13.529-12.008,1.923-16.734c0,0-2.193-4.027,3.002-4.966c0,0-5.712-13.105,6.785-11.697c0,0,1.608-20.381,16.682-10.017
			c0,0,6.624-10.78,12.283-0.44c0,0,13.022-9.662,13.103,5.107c0,0,15.959-7.084,10.232,9.926c0,0,13.496-0.057,9.256,9.895
			c0,0,8.319,3.184,0.9,10.143c0,0,3.529,1.931,0.247,4.696c0,0,7.171,6.661-4.772,10.954c0,0,0.25,8.537-8.341,6.01
			C142.051,137.344,135.533,150.758,135.533,150.758z"/>
		<path style="fill:#222937;" d="M337.9,109.004c0,0-25.462,15.459-6.972,34.556l13.396-0.085l2.67-2.946L337.9,109.004z"/>
		<path style="fill:#222937;" d="M379.776,138.561c0,0-3.547,29.576-28.58,20.637l-5.462-12.232l1.578-3.649L379.776,138.561z"/>
		<g>
			<polygon style="fill:#EACAB9;" points="286.663,143.781 291.673,137.804 260.059,114.006 255.512,119.917 			"/>
		</g>
		<path style="fill:#EACAB9;" d="M264.75,138.449c0,11.298-7.69,18.41-17.176,18.41h-0.572c-9.486,0-17.176-7.113-17.176-18.41
			v-13.637c0-11.298,7.69-15.683,17.176-15.683h0.572c9.486,0,17.176,4.385,17.176,15.683V138.449z"/>
		<g>
			<rect x="242.999" y="96.599" style="fill:#EACAB9;" width="7.366" height="20.364"/>
		</g>
		<g>
			<circle style="fill:#EACAB9;" cx="220.036" cy="81.218" r="6.282"/>
			<circle style="fill:#EACAB9;" cx="273.328" cy="81.218" r="6.282"/>
			
				<ellipse transform="matrix(0.9687 -0.2481 0.2481 0.9687 -12.3852 63.7283)" style="fill:#F4D8C8;" cx="246.647" cy="81.002" rx="26.863" ry="26.863"/>
			<g>
				<path style="fill:#222937;" d="M227.507,81.338c0,2.04,1.654,3.694,3.694,3.694c2.04,0,3.694-1.654,3.694-3.694
					c0-2.04-1.654-3.694-3.694-3.694C229.161,77.644,227.507,79.298,227.507,81.338z"/>
				<path style="fill:#222937;" d="M258.399,81.338c0,2.04,1.654,3.694,3.694,3.694c2.04,0,3.694-1.654,3.694-3.694
					c0-2.04-1.654-3.694-3.694-3.694C260.053,77.644,258.399,79.298,258.399,81.338z"/>
			</g>
			<g>
				<path style="fill:#222937;" d="M241.274,84.36c0,0,0.11,0.254,0.271,0.7c0.04,0.111,0.079,0.238,0.132,0.368
					c0.067,0.115,0.14,0.239,0.218,0.371c0.141,0.26,0.298,0.531,0.542,0.809c0.116,0.137,0.213,0.291,0.348,0.424
					c0.148,0.123,0.284,0.259,0.427,0.392c0.13,0.146,0.299,0.257,0.478,0.358c0.18,0.097,0.327,0.242,0.513,0.333
					c0.383,0.167,0.757,0.354,1.18,0.43c0.4,0.152,0.841,0.115,1.263,0.18c-0.201,0.01-0.052,0.002-0.095,0.004l0.006-0.001
					l0.012-0.001l0.025-0.002l0.049-0.004l0.098-0.009l0.197-0.017l0.393-0.035c0.295-0.008,0.452-0.077,0.63-0.13
					c0.353-0.063,0.747-0.248,1.127-0.416c0.187-0.09,0.332-0.237,0.512-0.334c0.179-0.101,0.348-0.212,0.478-0.357
					c0.143-0.133,0.28-0.268,0.427-0.392c0.135-0.132,0.233-0.286,0.349-0.423c0.242-0.272,0.406-0.56,0.548-0.829
					c0.076-0.133,0.142-0.261,0.217-0.379c0.047-0.126,0.09-0.242,0.129-0.346c0.159-0.427,0.271-0.694,0.271-0.694
					s0.059,0.257,0.126,0.747c0.014,0.122,0.035,0.261,0.045,0.412c-0.007,0.147-0.031,0.306-0.049,0.48
					c-0.022,0.176-0.045,0.364-0.07,0.561c-0.031,0.199-0.128,0.384-0.197,0.594c-0.082,0.204-0.15,0.432-0.261,0.646
					c-0.124,0.204-0.268,0.409-0.413,0.625c-0.135,0.227-0.315,0.422-0.514,0.611c-0.195,0.193-0.397,0.396-0.629,0.564
					c-0.489,0.3-0.966,0.663-1.636,0.829c-0.317,0.103-0.654,0.215-0.889,0.217l-0.392,0.044l-0.196,0.022l-0.098,0.011
					l-0.049,0.006l-0.151,0.01c-0.619-0.076-1.255-0.075-1.826-0.325c-0.601-0.154-1.097-0.514-1.583-0.816
					c-0.233-0.167-0.433-0.372-0.628-0.564c-0.199-0.189-0.38-0.384-0.514-0.611c-0.144-0.216-0.289-0.42-0.412-0.625
					c-0.111-0.213-0.179-0.441-0.261-0.645c-0.07-0.212-0.165-0.392-0.199-0.597c-0.026-0.204-0.051-0.397-0.075-0.578
					c-0.02-0.178-0.042-0.339-0.049-0.487c0.018-0.142,0.034-0.272,0.049-0.39C241.217,84.63,241.274,84.36,241.274,84.36z"/>
			</g>
		</g>
		<g>
			<polygon style="fill:#EACAB9;" points="207.627,143.781 202.617,137.804 234.232,114.006 238.778,119.917 			"/>
		</g>
		<path style="fill:#EACAB9;" d="M209.889,142.093c0,3.589-2.91,6.499-6.499,6.499c-3.589,0-6.499-2.91-6.499-6.499
			c0-3.589,2.91-6.499,6.499-6.499C206.979,135.594,209.889,138.503,209.889,142.093z"/>
		<circle style="fill:#EACAB9;" cx="288.743" cy="142.093" r="6.499"/>
		<g>
			<g>
				
					<rect x="220.984" y="158.372" transform="matrix(0.0012 -1 1 0.0012 74.1967 398.8297)" style="fill:#8B9CC1;" width="31.54" height="7.799"/>
			</g>
			<g>
				
					<rect x="240.914" y="158.396" transform="matrix(0.0012 -1 1 0.0012 94.0752 418.7816)" style="fill:#8B9CC1;" width="31.54" height="7.799"/>
			</g>
		</g>
		<path style="fill:#EACAB9;" d="M260.58,175.448l-7.792,0.049l-0.093,4.507c0,0,12.308,0,12.793,0
			C265.747,180.004,262.84,177.679,260.58,175.448z"/>
		<path style="fill:#EACAB9;" d="M232.822,175.423c-2.261,2.232-4.946,4.58-4.688,4.58c0.486,0,12.793,0,12.793,0l-0.241-4.605
			L232.822,175.423z"/>
		<path style="fill:#ED8888;" d="M260.58,175.448l-7.792,0.049l-0.093,4.507c0,0,12.308,0,12.793,0
			C265.747,180.004,262.84,177.679,260.58,175.448z"/>
		<path style="fill:#ED8888;" d="M232.822,175.423c-2.261,2.232-4.946,4.58-4.688,4.58c0.486,0,12.793,0,12.793,0l-0.241-4.605
			L232.822,175.423z"/>
		<rect x="232.312" y="171.549" style="fill:#A8B5CC;" width="8.993" height="4.042"/>
		<rect x="252.015" y="171.549" style="fill:#A8B5CC;" width="8.993" height="4.042"/>
		<g>
			<g>
				
					<rect x="335.855" y="138.152" transform="matrix(0.6155 -0.7882 0.7882 0.6155 21.2777 327.2803)" style="fill:#B28474;" width="20.364" height="7.366"/>
			</g>
			<g>
				<path style="fill:#B28474;" d="M335.816,101.421c-2.135,2.735-1.65,6.683,1.085,8.818c2.735,2.135,6.683,1.65,8.818-1.085
					s1.649-6.683-1.085-8.818C341.9,98.2,337.952,98.686,335.816,101.421z"/>
				<path style="fill:#B28474;" d="M377.82,134.219c-2.135,2.735-1.65,6.683,1.085,8.818c2.735,2.135,6.683,1.65,8.818-1.085
					c2.135-2.735,1.65-6.683-1.085-8.818C383.903,130.999,379.955,131.485,377.82,134.219z"/>
				
					<ellipse transform="matrix(0.8829 -0.4695 0.4695 0.8829 -14.6793 184.1144)" style="fill:#C69783;" cx="361.876" cy="121.495" rx="26.863" ry="26.863"/>
				<g>
					<path style="fill:#222937;" d="M346.584,109.98c-1.255,1.608-0.97,3.929,0.638,5.184c1.608,1.256,3.929,0.97,5.185-0.638
						c1.255-1.608,0.97-3.929-0.638-5.184C350.16,108.086,347.839,108.372,346.584,109.98z"/>
					<path style="fill:#222937;" d="M370.932,128.992c-1.255,1.608-0.97,3.929,0.638,5.184c1.608,1.255,3.929,0.97,5.184-0.638
						c1.256-1.608,0.97-3.929-0.638-5.184C374.509,127.099,372.188,127.384,370.932,128.992z"/>
				</g>
				<path style="fill:#FFFFFF;" d="M364.044,127.448c-1.826,2.339-5.202,2.754-7.541,0.928c-2.339-1.826-2.754-5.202-0.928-7.541
					L364.044,127.448z"/>
			</g>
			<g>
				<polygon style="fill:#C69783;" points="292.484,146.962 292.214,139.167 333.05,139.923 331.231,147.501 				"/>
			</g>
			<g>
				<polygon style="fill:#C69783;" points="353.76,194.809 342.143,156.746 350.176,152.503 361.387,193.181 				"/>
			</g>
			<path style="fill:#C69783;" d="M295.305,147.022c-2.209,2.829-6.293,3.332-9.122,1.123c-2.829-2.209-3.332-6.293-1.123-9.122
				c2.209-2.829,6.293-3.332,9.122-1.123C297.012,140.109,297.514,144.193,295.305,147.022z"/>
			<path style="fill:#C69783;" d="M362.579,199.553c-2.209,2.829-6.293,3.332-9.122,1.123c-2.829-2.209-3.332-6.293-1.123-9.122
				c2.209-2.829,6.293-3.332,9.122-1.123C364.286,192.64,364.788,196.724,362.579,199.553z"/>
			<g>
				<g>
					
						<rect x="289.097" y="177.242" transform="matrix(0.6154 -0.7882 0.7882 0.6154 -26.3502 308.2754)" style="fill:#C69783;" width="27.296" height="7.799"/>
				</g>
				<g>
					
						<rect x="304.806" y="189.508" transform="matrix(0.6155 -0.7882 0.7882 0.6155 -29.9781 325.3704)" style="fill:#C69783;" width="27.296" height="7.799"/>
				</g>
			</g>
			<g>
				<path style="fill:#222937;" d="M292.532,187.766c-5.052-1.212-6.364,0.221-6.179,0.366c0.383,0.299,10.084,7.874,10.084,7.874
					l2.28-3.47C295.628,191.939,293.746,190.657,292.532,187.766z"/>
			</g>
			<g>
				<path style="fill:#222937;" d="M308.093,200.244l-2.38,3.003c0,0,9.701,7.575,10.084,7.874c0.195,0.152,1.29-3.148-1.135-6.432
					C311.636,204.23,309.492,202.853,308.093,200.244z"/>
			</g>
			<path style="fill:#B28474;" d="M318.784,147.631c6.715-9.086,17.126-10.235,24.755-4.597l0.46,0.34
				c7.629,5.638,9.586,15.929,2.871,25.014l-8.105,10.967c-6.715,9.086-15.505,8.042-23.134,2.404l-0.461-0.34
				c-7.629-5.638-11.207-13.735-4.492-22.821L318.784,147.631z"/>
		</g>
		<g>
			<g>
				
					<rect x="384.233" y="319.531" transform="matrix(0.5004 -0.8658 0.8658 0.5004 -91.6683 500.5597)" style="fill:#B28474;" width="7.366" height="20.364"/>
			</g>
			<path style="fill:#B28474;" d="M426.526,313.997c-3.004-1.736-6.847-0.709-8.583,2.295c-1.736,3.004-0.709,6.847,2.295,8.583
				c3.004,1.736,6.847,0.709,8.583-2.295C430.558,319.576,429.53,315.734,426.526,313.997z"/>
			<path style="fill:#B28474;" d="M399.857,360.136c-3.004-1.736-6.847-0.709-8.583,2.295c-1.736,3.004-0.709,6.847,2.295,8.583
				c3.004,1.736,6.847,0.709,8.583-2.295C403.889,365.715,402.861,361.872,399.857,360.136z"/>
			
				<ellipse transform="matrix(0.4804 -0.8771 0.8771 0.4804 -87.2881 537.8389)" style="fill:#C69783;" cx="410.253" cy="342.584" rx="26.863" ry="26.863"/>
			<g>
				<path style="fill:#222937;" d="M419.54,325.846c-1.766-1.021-4.025-0.417-5.046,1.349c-1.021,1.766-0.417,4.025,1.349,5.046
					c1.766,1.021,4.025,0.417,5.046-1.349C421.91,329.126,421.306,326.866,419.54,325.846z"/>
				<path style="fill:#222937;" d="M404.081,352.591c-1.766-1.021-4.025-0.417-5.046,1.349c-1.021,1.766-0.417,4.025,1.349,5.046
					c1.766,1.021,4.025,0.417,5.046-1.349C406.451,355.871,405.847,353.612,404.081,352.591z"/>
			</g>
			<g>
				<path style="fill:#222937;" d="M410.034,336.252c0,0-0.275-0.031-0.742-0.116c-0.116-0.021-0.245-0.051-0.385-0.07
					c-0.133,0.001-0.277,0.002-0.43,0.003c-0.295-0.008-0.608-0.007-0.972,0.065c-0.177,0.032-0.359,0.039-0.541,0.09
					c-0.181,0.066-0.366,0.116-0.553,0.174c-0.191,0.04-0.372,0.131-0.549,0.235c-0.174,0.108-0.373,0.162-0.545,0.278
					c-0.336,0.248-0.686,0.478-0.963,0.806c-0.332,0.27-0.52,0.671-0.788,1.004c0.092-0.179,0.024-0.046,0.044-0.085l-0.003,0.006
					l-0.005,0.011l-0.01,0.022l-0.021,0.045l-0.042,0.09l-0.083,0.179l-0.166,0.358c-0.141,0.26-0.159,0.43-0.203,0.61
					c-0.122,0.337-0.159,0.771-0.204,1.184c-0.015,0.207,0.039,0.406,0.032,0.61c-0.002,0.205,0.009,0.407,0.07,0.593
					c0.044,0.191,0.092,0.376,0.126,0.565c0.047,0.183,0.131,0.345,0.192,0.514c0.114,0.346,0.282,0.632,0.443,0.89
					c0.077,0.133,0.155,0.253,0.219,0.377c0.086,0.104,0.164,0.199,0.236,0.285c0.29,0.351,0.465,0.582,0.465,0.582
					s-0.252-0.077-0.71-0.265c-0.113-0.049-0.243-0.1-0.379-0.167c-0.124-0.08-0.25-0.18-0.391-0.283
					c-0.142-0.107-0.292-0.221-0.451-0.342c-0.156-0.127-0.268-0.303-0.415-0.468c-0.135-0.173-0.299-0.346-0.428-0.549
					c-0.115-0.21-0.22-0.437-0.335-0.67c-0.129-0.23-0.208-0.483-0.272-0.751c-0.07-0.265-0.144-0.542-0.174-0.827
					c-0.015-0.573-0.09-1.168,0.1-1.831c0.069-0.326,0.141-0.674,0.257-0.879l0.158-0.361l0.079-0.181l0.04-0.09l0.02-0.045
					l0.067-0.135c0.376-0.497,0.693-1.049,1.195-1.418c0.434-0.443,0.994-0.692,1.499-0.962c0.261-0.118,0.538-0.189,0.803-0.261
					c0.264-0.078,0.523-0.137,0.786-0.14c0.259-0.017,0.508-0.04,0.747-0.044c0.24,0.011,0.472,0.066,0.689,0.097
					c0.218,0.045,0.422,0.053,0.616,0.127c0.19,0.079,0.369,0.154,0.538,0.225c0.164,0.072,0.315,0.134,0.446,0.202
					c0.114,0.086,0.219,0.165,0.313,0.237C409.829,336.067,410.034,336.252,410.034,336.252z"/>
			</g>
			<g>
				
					<rect x="378.687" y="276.423" transform="matrix(0.985 -0.1726 0.1726 0.985 -45.2907 70.4795)" style="fill:#C69783;" width="7.799" height="38.444"/>
			</g>
			<g>
				
					<rect x="336.695" y="337.885" transform="matrix(0.9397 -0.342 0.342 0.9397 -95.4302 142.3375)" style="fill:#C69783;" width="38.443" height="7.799"/>
			</g>
			<path style="fill:#C69783;" d="M375.757,280.188c-3.108-1.796-4.171-5.771-2.374-8.879c1.796-3.108,5.771-4.171,8.879-2.374
				c3.108,1.796,4.171,5.771,2.374,8.879C382.84,280.921,378.865,281.984,375.757,280.188z"/>
			<path style="fill:#C69783;" d="M333.043,354.085c-3.107-1.796-4.171-5.771-2.374-8.879c1.796-3.108,5.772-4.171,8.879-2.374
				c3.107,1.796,4.171,5.771,2.374,8.879C340.126,354.818,336.15,355.881,333.043,354.085z"/>
			<g>
				<g>
					
						<rect x="339.097" y="278.63" transform="matrix(0.5004 -0.8658 0.8658 0.5004 -81.6981 442.9688)" style="fill:#C69783;" width="7.799" height="27.296"/>
				</g>
				<g>
					
						<rect x="329.123" y="295.885" transform="matrix(0.5004 -0.8658 0.8658 0.5004 -101.6192 442.9541)" style="fill:#C69783;" width="7.799" height="27.296"/>
				</g>
			</g>
			<g>
				<path style="fill:#C69783;" d="M336.962,288.376c0,0-2.914-11.785-3.158-11.365c-0.243,0.421-6.402,11.076-6.402,11.076
					l7.173,3.398L336.962,288.376z"/>
			</g>
			<g>
				<path style="fill:#C69783;" d="M326.534,306.416c0,0-11.667,3.357-11.424,2.936c0.243-0.421,6.402-11.076,6.402-11.076
					l6.525,4.52L326.534,306.416z"/>
			</g>
			<g>
				<path style="fill:#FFD45A;" d="M335.616,283.08c-0.8-3.07-1.683-6.292-1.812-6.069c-0.243,0.421-6.402,11.076-6.402,11.076
					l2.842,1.346C330.813,286.61,332.858,283.9,335.616,283.08z"/>
			</g>
			<g>
				<path style="fill:#FFD45A;" d="M321.053,306.836c-0.258-2.458,0.832-5.212,2.717-6.997l-2.257-1.564
					c0,0-6.159,10.656-6.402,11.076c-0.129,0.223,3.08-0.613,6.129-1.449C321.159,307.56,321.092,307.208,321.053,306.836z"/>
			</g>
			<path style="fill:#B28474;" d="M377.905,303.83c9.85,5.533,12.285,15.721,7.639,23.992l-0.28,0.499
				c-4.646,8.271-14.613,11.492-24.463,5.959l-11.89-6.679c-9.85-5.533-9.907-14.385-5.262-22.656l0.28-0.499
				c4.646-8.271,12.235-12.828,22.085-7.295L377.905,303.83z"/>
			<path style="fill:#222937;" d="M428.822,322.58c0,0-18.676,23.564,2.916,36.519C431.737,359.099,451.276,343.82,428.822,322.58z"
				/>
			<path style="fill:#222937;" d="M402.152,368.719c0,0,12.311-24.734,29.585-9.62C431.737,359.099,422.229,377.259,402.152,368.719
				z"/>
		</g>
		<g>
			<g>
				
					<rect x="143.792" y="133.298" transform="matrix(0.764 -0.6452 0.6452 0.764 -57.7713 129.0145)" style="fill:#846257;" width="7.366" height="20.364"/>
			</g>
			<path style="fill:#846257;" d="M105.824,145.195c2.239,2.651,6.202,2.985,8.853,0.746c2.651-2.239,2.985-6.202,0.746-8.853
				c-2.239-2.651-6.202-2.985-8.853-0.746C103.919,138.581,103.585,142.545,105.824,145.195z"/>
			<path style="fill:#846257;" d="M146.539,110.811c2.239,2.651,6.202,2.985,8.853,0.746c2.651-2.239,2.985-6.202,0.746-8.853
				c-2.239-2.651-6.202-2.985-8.853-0.746S144.3,108.16,146.539,110.811z"/>
			
				<ellipse transform="matrix(0.7071 -0.7071 0.7071 0.7071 -49.2295 128.7622)" style="fill:#A07768;" cx="130.815" cy="123.806" rx="26.863" ry="26.863"/>
			<path style="fill:#62AF8F;" d="M118.787,108.588c9.749-8.233,23.64-8.307,33.429-0.96c-0.292-0.386-0.563-0.781-0.879-1.154
				c-9.572-11.335-26.521-12.763-37.855-3.191c-11.335,9.572-12.763,26.521-3.191,37.855c1.339,1.585,2.834,2.956,4.426,4.15
				C106.161,133.984,107.827,117.845,118.787,108.588z"/>
			<g>
				<path style="fill:#222937;" d="M116.409,136.412c1.316,1.559,3.647,1.755,5.205,0.439c1.558-1.316,1.755-3.647,0.439-5.205
					c-1.316-1.559-3.646-1.755-5.205-0.439C115.289,132.523,115.093,134.854,116.409,136.412z"/>
				<path style="fill:#222937;" d="M140.01,116.48c1.316,1.558,3.647,1.755,5.205,0.439s1.755-3.647,0.439-5.205
					c-1.316-1.559-3.647-1.755-5.205-0.439C138.891,112.591,138.694,114.922,140.01,116.48z"/>
			</g>
			<g>
				<path style="fill:#222937;" d="M128.877,129.838c0,0,0.248,0.123,0.659,0.36c0.102,0.059,0.213,0.131,0.339,0.196
					c0.125,0.044,0.261,0.092,0.406,0.143c0.275,0.107,0.57,0.213,0.936,0.268c0.177,0.03,0.351,0.085,0.539,0.099
					c0.193-0.001,0.384,0.015,0.579,0.024c0.194,0.028,0.394,0.003,0.596-0.035c0.2-0.042,0.406-0.026,0.607-0.077
					c0.4-0.119,0.807-0.218,1.179-0.433c0.403-0.142,0.716-0.455,1.081-0.678c-0.147,0.137-0.038,0.035-0.07,0.065l0.004-0.005
					l0.008-0.009l0.017-0.018l0.035-0.035l0.069-0.07l0.139-0.14l0.277-0.28c0.22-0.197,0.295-0.351,0.398-0.505
					c0.229-0.276,0.411-0.671,0.593-1.046c0.085-0.189,0.101-0.395,0.176-0.585c0.071-0.193,0.129-0.386,0.135-0.581
					c0.024-0.194,0.041-0.385,0.073-0.575c0.018-0.188-0.007-0.369-0.007-0.548c0.009-0.364-0.051-0.69-0.116-0.988
					c-0.027-0.151-0.06-0.291-0.079-0.429c-0.046-0.127-0.087-0.243-0.125-0.348c-0.154-0.428-0.24-0.705-0.24-0.705
					s0.211,0.158,0.578,0.49c0.089,0.085,0.195,0.176,0.3,0.285c0.09,0.117,0.174,0.254,0.272,0.399
					c0.097,0.149,0.2,0.307,0.309,0.474c0.104,0.172,0.15,0.376,0.232,0.581c0.069,0.209,0.165,0.427,0.217,0.661
					c0.037,0.236,0.059,0.486,0.088,0.744c0.043,0.26,0.032,0.525,0.001,0.799c-0.024,0.273-0.048,0.559-0.117,0.836
					c-0.18,0.544-0.31,1.129-0.714,1.689c-0.176,0.283-0.361,0.586-0.539,0.74l-0.271,0.286l-0.136,0.143l-0.068,0.072l-0.034,0.036
					l-0.109,0.105c-0.522,0.341-1.007,0.752-1.605,0.93c-0.558,0.27-1.17,0.315-1.736,0.398c-0.285,0.023-0.571-0.005-0.844-0.026
					c-0.275-0.016-0.538-0.048-0.787-0.135c-0.25-0.072-0.492-0.134-0.718-0.212c-0.222-0.091-0.421-0.222-0.615-0.324
					c-0.19-0.117-0.379-0.193-0.537-0.328c-0.152-0.139-0.295-0.27-0.43-0.394c-0.13-0.123-0.251-0.232-0.352-0.341
					c-0.078-0.12-0.15-0.23-0.214-0.329C129.008,130.082,128.877,129.838,128.877,129.838z"/>
			</g>
			<g>
				
					<rect x="121.734" y="173.441" transform="matrix(0.171 -0.9853 0.9853 0.171 -57.8802 285.8867)" style="fill:#A07768;" width="38.444" height="7.799"/>
			</g>
			<g>
				
					<rect x="162.449" y="139.056" transform="matrix(1 -0.0037 0.0037 1 -0.5231 0.6673)" style="fill:#A07768;" width="38.443" height="7.799"/>
			</g>
			<path style="fill:#A07768;" d="M142.148,194.197c2.316,2.742,1.97,6.843-0.772,9.159c-2.742,2.316-6.843,1.97-9.158-0.772
				s-1.97-6.843,0.772-9.158C135.732,191.109,139.832,191.455,142.148,194.197z"/>
			<path style="fill:#A07768;" d="M207.359,139.125c2.316,2.742,1.97,6.843-0.772,9.159c-2.742,2.316-6.843,1.97-9.159-0.772
				c-2.316-2.742-1.97-6.843,0.772-9.158C200.942,136.037,205.043,136.383,207.359,139.125z"/>
			<g>
				<g>
					<polygon style="fill:#A07768;" points="188.853,201.823 182.895,206.855 161.179,182.663 171.242,180.969 					"/>
				</g>
				<g>
					
						<rect x="188.395" y="167.405" transform="matrix(0.764 -0.6452 0.6452 0.764 -71.4367 166.7994)" style="fill:#A07768;" width="7.799" height="27.296"/>
				</g>
			</g>
			<g>
				<path style="fill:#A07768;" d="M181.425,199.626c0,0-1.248,12.076-0.876,11.763c0.371-0.314,9.774-8.255,9.774-8.255
					l-5.599-5.626L181.425,199.626z"/>
			</g>
			<g>
				<path style="fill:#A07768;" d="M197.344,186.182c0,0,12.115,0.791,11.743,1.105c-0.371,0.313-9.774,8.255-9.774,8.255
					l-4.609-6.462L197.344,186.182z"/>
			</g>
			<g>
				<path style="fill:#222937;" d="M187.984,200.785c-1.405,2.581-3.903,4.581-6.907,4.581c-0.069,0-0.137-0.006-0.205-0.007
					c-0.276,3.068-0.514,6.192-0.323,6.03c0.371-0.313,9.774-8.255,9.774-8.255L187.984,200.785z"/>
			</g>
			<g>
				<path style="fill:#222937;" d="M203.398,186.62c-0.959,2.856-3.717,5.133-6.627,5.799l2.543,3.122c0,0,9.403-7.941,9.774-8.255
					C209.272,187.131,206.366,186.857,203.398,186.62z"/>
			</g>
			<path style="fill:#846257;" d="M180.13,154.254c8.263,7.704,8.222,18.179,1.753,25.118l-0.39,0.419
				c-6.469,6.938-16.915,7.713-25.179,0.009l-9.975-9.3c-8.263-7.704-6.227-16.319,0.242-23.258l0.39-0.419
				c6.469-6.938,14.921-9.572,23.184-1.868L180.13,154.254z"/>
			<path style="fill:#222937;" d="M177.052,151.383c-9.535,6.802-17.527,15.43-26.188,23.334l5.45,5.081
				c8.263,7.704,18.71,6.93,25.179-0.009l0.39-0.419c6.469-6.938,6.51-17.413-1.753-25.118L177.052,151.383z"/>
			<g>
				<g>
					<path style="fill:#222937;" d="M180.471,191.898l-9.23-10.929l-10.062,1.694l12.582,14.016
						C175.995,195.082,178.235,193.492,180.471,191.898z"/>
				</g>
				<g>
					<path style="fill:#222937;" d="M196.336,179.795l-9.868-11.685l-5.958,5.032l9.762,11.559
						C192.333,183.118,194.348,181.474,196.336,179.795z"/>
				</g>
			</g>
		</g>
		<path style="fill:#8B9CC1;" d="M230.35,143.257c1.858,8.462,8.598,13.602,16.651,13.602h0.572c8.054,0,14.794-5.14,16.651-13.602
			H230.35z"/>
		<path style="fill:#ED8888;" d="M229.825,128.26v10.189c0,1.648,0.182,3.196,0.491,4.657h33.944
			c0.309-1.461,0.491-3.008,0.491-4.657v-9.999l1.068,0.712l6.82-9.397l-13.222-7.251c-1.422-1.08-3.072-1.886-4.892-2.436
			c-0.569,3.886-3.24,7.667-6.712,7.667c-3.997,0-7.617-2.566-8.313-7.483c-1.362,0.459-2.619,1.071-3.751,1.837l-14.098,7.666
			l6.82,9.397L229.825,128.26z"/>
		<path style="fill:#E2C48F;" d="M263.377,64.544c0,0-10.212,13.752-26.142,12.118l4.085-8.85c0,0-7.625,8.986-25.598,6.399
			c0,0,0.408-20.696,23.691-26.414c23.283-5.719,27.776,10.348,27.776,10.348s14.705,3.812,6.399,19.607l-0.079,3.25l-2.644,0.426
			l-0.136-4.221C270.729,77.207,263.649,75.981,263.377,64.544z"/>
		<path style="fill:#222937;" d="M344.634,100.336c0,0,20.63,16.766,33.774-0.014C378.408,100.322,362.888,87.423,344.634,100.336z"
			/>
		<path style="fill:#222937;" d="M386.638,133.134c0,0-21.98-13.607-8.23-32.812C378.408,100.322,396.576,109.674,386.638,133.134z"
			/>
		<path style="fill:#FF6464;" d="M364.994,113.097c0,1.275,1.034,2.309,2.309,2.309c1.275,0,2.309-1.034,2.309-2.309
			s-1.034-2.309-2.309-2.309C366.027,110.788,364.994,111.821,364.994,113.097z"/>
		<path style="fill:#FFD45A;" d="M344.761,152.604c-4.955,0-9.435-2.773-9.994-8.093c-0.164-1.564,0.165-3.232,0.858-4.753
			c-5.963-0.822-12.261,1.677-16.84,7.873l-8.105,10.967c-6.714,9.086-3.136,17.183,4.492,22.821l0.46,0.34
			c7.629,5.638,16.42,6.682,23.134-2.404l8.105-10.967c4.417-5.976,5.062-12.466,2.828-17.818
			C348.352,151.806,346.657,152.604,344.761,152.604z"/>
		<g>
			<g>
				<polygon style="fill:#A07768;" points="180.969,351.387 174.346,355.505 196.969,387.971 203.131,383.771 				"/>
			</g>
			<path style="fill:#846257;" d="M200.129,363.283c3.521-10.735,13.045-15.097,22.059-12.14l0.544,0.178
				c9.014,2.956,14.104,12.112,10.583,22.846l-4.25,12.958c-3.521,10.735-12.195,12.505-21.208,9.549l-0.544-0.178
				c-9.014-2.956-14.954-9.52-11.433-20.255L200.129,363.283z"/>
			<g>
				
					<rect x="197.247" y="395.322" transform="matrix(0.3117 -0.9502 0.9502 0.3117 -236.3501 471.7509)" style="fill:#846257;" width="20.364" height="7.366"/>
			</g>
			<path style="fill:#A07768;" d="M230.75,433.557c1.081-3.297-0.715-6.846-4.012-7.927c-3.297-1.081-6.846,0.715-7.927,4.012
				c-1.081,3.297,0.715,6.846,4.011,7.927C226.119,438.65,229.669,436.854,230.75,433.557z"/>
			<path style="fill:#A07768;" d="M180.112,416.948c1.081-3.297-0.715-6.846-4.012-7.927c-3.297-1.081-6.846,0.715-7.928,4.012
				c-1.081,3.297,0.715,6.846,4.012,7.927C175.482,422.041,179.031,420.245,180.112,416.948z"/>
			
				<ellipse transform="matrix(0.978 -0.2087 0.2087 0.978 -83.9918 50.9436)" style="fill:#A07768;" cx="199.427" cy="423.511" rx="26.863" ry="26.863"/>
			<g>
				<path style="fill:#222937;" d="M217.718,429.157c0.636-1.938-0.42-4.025-2.359-4.661c-1.938-0.636-4.025,0.42-4.661,2.359
					c-0.636,1.938,0.42,4.025,2.358,4.661C214.995,432.151,217.082,431.095,217.718,429.157z"/>
				<path style="fill:#222937;" d="M188.365,419.529c0.636-1.938-0.42-4.025-2.359-4.661c-1.938-0.636-4.025,0.42-4.661,2.358
					c-0.636,1.938,0.42,4.025,2.359,4.661C185.642,422.523,187.729,421.468,188.365,419.529z"/>
			</g>
			<g>
				<path style="fill:#222937;" d="M205.578,421.995c0,0-0.026-0.275-0.039-0.75c-0.004-0.118-0.001-0.25-0.01-0.391
					c-0.028-0.13-0.059-0.271-0.091-0.421c-0.053-0.291-0.118-0.597-0.263-0.938c-0.067-0.166-0.112-0.343-0.199-0.511
					c-0.102-0.163-0.189-0.334-0.284-0.505c-0.078-0.179-0.204-0.337-0.342-0.489c-0.141-0.148-0.235-0.332-0.384-0.476
					c-0.312-0.277-0.609-0.573-0.987-0.776c-0.333-0.269-0.763-0.371-1.144-0.564c0.194,0.053,0.05,0.014,0.092,0.026l-0.006-0.001
					l-0.012-0.003l-0.024-0.005l-0.048-0.011l-0.096-0.022l-0.192-0.045l-0.384-0.089c-0.283-0.084-0.454-0.067-0.639-0.073
					c-0.355-0.05-0.787,0.003-1.201,0.044c-0.206,0.027-0.389,0.122-0.591,0.157c-0.201,0.04-0.396,0.093-0.566,0.191
					c-0.178,0.082-0.35,0.167-0.527,0.239c-0.169,0.083-0.31,0.199-0.463,0.293c-0.315,0.183-0.56,0.405-0.78,0.617
					c-0.114,0.102-0.216,0.204-0.324,0.292c-0.084,0.105-0.161,0.202-0.23,0.289c-0.284,0.356-0.474,0.575-0.474,0.575
					s0.023-0.263,0.113-0.749c0.025-0.12,0.048-0.259,0.085-0.405c0.053-0.138,0.125-0.281,0.197-0.441
					c0.076-0.161,0.156-0.331,0.242-0.512c0.092-0.179,0.241-0.325,0.373-0.503c0.141-0.168,0.277-0.364,0.449-0.532
					c0.182-0.155,0.382-0.305,0.587-0.466c0.199-0.173,0.43-0.303,0.679-0.421c0.245-0.123,0.501-0.253,0.773-0.34
					c0.558-0.133,1.124-0.328,1.813-0.278c0.333,0.001,0.688-0.001,0.913,0.071l0.386,0.08l0.193,0.04l0.097,0.02l0.048,0.01
					l0.146,0.037c0.564,0.265,1.169,0.462,1.634,0.878c0.522,0.334,0.882,0.83,1.25,1.269c0.169,0.231,0.296,0.488,0.421,0.732
					c0.13,0.242,0.241,0.483,0.298,0.741c0.07,0.25,0.144,0.489,0.197,0.723c0.039,0.237,0.032,0.475,0.047,0.694
					c0.001,0.223,0.035,0.424,0.003,0.629c-0.038,0.202-0.075,0.393-0.109,0.573c-0.037,0.175-0.066,0.336-0.106,0.478
					c-0.061,0.129-0.117,0.248-0.168,0.355C205.717,421.756,205.578,421.995,205.578,421.995z"/>
			</g>
			<g>
				<polygon style="fill:#A07768;" points="256.069,376.019 258.967,383.26 221.51,396.02 219.032,388.987 				"/>
			</g>
			<path style="fill:#A07768;" d="M253.394,376.919c1.119-3.411,4.79-5.269,8.201-4.15c3.411,1.119,5.269,4.79,4.15,8.201
				c-1.119,3.41-4.79,5.268-8.201,4.15C254.133,384.001,252.275,380.329,253.394,376.919z"/>
			<path style="fill:#A07768;" d="M172.291,350.318c1.119-3.411,4.79-5.269,8.201-4.15c3.411,1.119,5.269,4.79,4.15,8.201
				c-1.119,3.41-4.79,5.268-8.201,4.15C173.031,357.4,171.173,353.728,172.291,350.318z"/>
			<g>
				<g>
					
						<rect x="218.386" y="345.473" transform="matrix(0.3128 -0.9498 0.9498 0.3128 -170.9289 462.4918)" style="fill:#8B9CC1;" width="31.54" height="7.799"/>
				</g>
				<g>
					
						<rect x="199.456" y="339.238" transform="matrix(0.3128 -0.9498 0.9498 0.3128 -178.0156 440.2295)" style="fill:#8B9CC1;" width="31.54" height="7.799"/>
				</g>
			</g>
			<path style="fill:#EACAB9;" d="M215.623,329.427l7.419,2.382l1.493-4.254c0,0-11.695-3.836-12.156-3.987
				C212.133,323.487,214.17,326.602,215.623,329.427z"/>
			<path style="fill:#EACAB9;" d="M241.991,338.101c2.844-1.416,6.128-2.811,5.882-2.891c-0.462-0.152-12.156-3.987-12.156-3.987
				l-1.206,4.451L241.991,338.101z"/>
			<path style="fill:#222937;" d="M215.623,329.427l7.419,2.382l1.493-4.254c0,0-11.695-3.836-12.156-3.987
				C212.133,323.487,214.17,326.602,215.623,329.427z"/>
			<path style="fill:#222937;" d="M241.991,338.101c2.844-1.416,6.128-2.811,5.882-2.891c-0.462-0.152-12.156-3.987-12.156-3.987
				l-1.206,4.451L241.991,338.101z"/>
			
				<rect x="235.604" y="334.124" transform="matrix(0.3117 -0.9502 0.9502 0.3117 -158.1868 458.8783)" style="fill:#A8B5CC;" width="4.042" height="8.993"/>
			
				<rect x="216.883" y="327.983" transform="matrix(0.3117 -0.9502 0.9502 0.3117 -165.239 436.8621)" style="fill:#A8B5CC;" width="4.042" height="8.993"/>
			<path style="fill:#8B9CC1;" d="M234.314,369.435c0.872-8.619-3.93-15.604-11.583-18.114l-0.544-0.178
				c-7.653-2.51-15.659,0.274-20.061,7.735L234.314,369.435z"/>
			<path style="fill:#62AF8F;" d="M230.139,383.849l3.175-9.681c0.514-1.566,0.824-3.093,0.985-4.578l-32.253-10.579
				c-0.749,1.292-1.404,2.706-1.917,4.272l-3.116,9.501l-0.793-1.009l-9.409,6.803l10.304,11.011
				c1.014,1.47,2.331,2.749,3.889,3.839c1.751-3.515,5.468-6.275,8.767-5.193c3.798,1.246,6.437,4.812,5.566,9.701
				c1.437-0.012,2.822-0.201,4.137-0.577l15.785-2.891l-3.552-11.054L230.139,383.849z"/>
			<path style="fill:#222937;" d="M172.185,420.959c0,0,13.547,2.383,8.394,13.599c0,0,2.425-11.519,11.822-6.366
				c9.397,5.153,2.728,12.125,2.728,12.125s6.972-13.034,13.337-6.366c6.366,6.669,0.303,12.428,0.303,12.428
				s7.494-14.593,14.053-8.812c0,0-6.475,21.846-31.634,14.268C166.029,444.258,169.247,427.063,172.185,420.959z"/>
		</g>
		<polygon style="fill:#FFD45A;" points="318.954,147.198 291.522,164.173 334.868,197.213 346.69,167.962 		"/>
		<g>
			<path style="fill:#FFD45A;" d="M301.163,139.333c-0.028,2.583-0.043,5.166-0.051,7.749l30.119,0.419l2.107-7.877L301.163,139.333
				z"/>
		</g>
		<polygon style="fill:#FFD45A;" points="349.873,151.442 359.118,184.331 350.782,186.149 344.114,165.688 		"/>
		<g>
			<g>
				
					<rect x="114.223" y="332.692" transform="matrix(0.8304 -0.5572 0.5572 0.8304 -166.3289 126.3784)" style="fill:#EACAB9;" width="20.364" height="7.366"/>
			</g>
			<path style="fill:#EACAB9;" d="M121.526,377.961c2.881-1.933,3.649-5.836,1.716-8.717c-1.933-2.881-5.836-3.649-8.717-1.716
				c-2.881,1.933-3.649,5.836-1.716,8.717C114.742,379.126,118.645,379.895,121.526,377.961z"/>
			<path style="fill:#EACAB9;" d="M91.831,333.71c2.881-1.933,3.649-5.836,1.716-8.717c-1.933-2.881-5.836-3.649-8.717-1.716
				c-2.881,1.933-3.649,5.836-1.716,8.717C85.047,334.875,88.95,335.643,91.831,333.71z"/>
			
				<ellipse transform="matrix(0.2032 -0.9791 0.9791 0.2032 -261.3644 380.378)" style="fill:#F4D8C8;" cx="103.018" cy="350.768" rx="26.863" ry="26.863"/>
			<g>
				<path style="fill:#222937;" d="M113.961,366.474c1.694-1.137,2.146-3.431,1.009-5.125c-1.137-1.694-3.431-2.146-5.125-1.009
					c-1.694,1.137-2.146,3.431-1.009,5.125C109.973,367.159,112.267,367.611,113.961,366.474z"/>
				<path style="fill:#222937;" d="M96.748,340.822c1.694-1.137,2.146-3.431,1.009-5.125c-1.137-1.694-3.431-2.146-5.125-1.009
					c-1.694,1.137-2.146,3.431-1.009,5.125C92.759,341.507,95.054,341.959,96.748,340.822z"/>
			</g>
			<path style="fill:#FFFFFF;" d="M102.812,344.436c2.464-1.653,5.801-0.996,7.455,1.467c1.653,2.464,0.996,5.801-1.467,7.455
				L102.812,344.436z"/>
			<g>
				<polygon style="fill:#F4D8C8;" points="176.89,348.187 174.718,355.678 136.15,342.237 140.239,335.603 				"/>
			</g>
			<g>
				<polygon style="fill:#F4D8C8;" points="133.569,283.63 132.75,323.418 123.795,324.948 125.815,282.802 				"/>
			</g>
			<path style="fill:#F4D8C8;" d="M174.228,347.25c2.98-2,7.018-1.205,9.018,1.775c2,2.98,1.205,7.018-1.775,9.018
				c-2.98,2-7.018,1.205-9.018-1.775C170.453,353.288,171.247,349.25,174.228,347.25z"/>
			<path style="fill:#F4D8C8;" d="M126.667,276.375c2.98-2,7.018-1.205,9.018,1.775c2,2.98,1.205,7.018-1.775,9.018
				c-2.981,2-7.018,1.205-9.018-1.775C122.892,282.413,123.687,278.375,126.667,276.375z"/>
			<g>
				<g>
					
						<rect x="164.14" y="308.612" transform="matrix(0.8304 -0.5572 0.5572 0.8304 -143.9771 152.0769)" style="fill:#F4D8C8;" width="27.296" height="7.799"/>
				</g>
				<g>
					
						<rect x="153.034" y="292.063" transform="matrix(0.8304 -0.5572 0.5572 0.8304 -136.6395 143.0816)" style="fill:#F4D8C8;" width="27.296" height="7.799"/>
				</g>
			</g>
			<g>
				<path style="fill:#8B9CC1;" d="M189.556,309.398c4.423,2.726,6.116,1.773,5.985,1.577c-0.271-0.403-7.129-10.623-7.129-10.623
					l-3.247,2.587C187.915,304.469,189.303,306.273,189.556,309.398z"/>
			</g>
			<g>
				<path style="fill:#8B9CC1;" d="M178.658,292.693l3.198-2.112c0,0-6.858-10.22-7.129-10.623
					c-0.138-0.206-2.206,2.589-0.925,6.465C176.533,287.802,178.14,289.778,178.658,292.693z"/>
			</g>
			<path style="fill:#EACAB9;" d="M152.107,339.357c-9.211,6.542-19.463,4.39-24.956-3.344l-0.331-0.467
				c-5.493-7.734-4.147-18.122,5.064-24.664l11.119-7.896c9.211-6.542,17.239-2.811,22.732,4.923l0.331,0.467
				c5.493,7.734,6.37,16.543-2.841,23.085L152.107,339.357z"/>
		</g>
		<path style="fill:#8B9CC1;" d="M136.261,307.774l-4.377,3.108c-6.059,4.303-8.694,10.269-8.239,16.051
			c1.666-0.754,3.525-0.985,5.327-0.394c4.709,1.544,8.102,5.575,6.976,10.804c-0.331,1.537-1.163,3.02-2.296,4.249
			c5.41,2.638,12.173,2.226,18.455-2.235l3.96-2.812C147.639,328.212,141.823,318.109,136.261,307.774z"/>
		<polygon style="fill:#ED8888;" points="152.107,339.357 183.166,332.132 152.27,287.232 133.686,309.695 		"/>
		<g>
			<path style="fill:#8B9CC1;" d="M155.598,340.876l-15.358-5.273l-4.456,6.828l16.709,5.646
				C153.454,345.659,154.534,343.275,155.598,340.876z"/>
		</g>
		<path style="fill:#8B9CC1;" d="M124.651,305.049l-0.899,21.002l9.911-11.743l0.017-9.757
			C130.67,304.622,127.66,304.781,124.651,305.049z"/>
		<path style="fill:#62AF8F;" d="M141.779,155.079c0,0,14.55-4.85,16.066-14.55c1.819-2.728,14.55-3.334,14.55-3.334v9.397
			l10.003,6.972l-28.19,26.068l-7.881-8.184l-9.397-0.303C136.929,171.145,138.445,158.413,141.779,155.079z"/>
		<g>
			<g>
				
					<rect x="307.092" y="386.502" transform="matrix(0.938 -0.3465 0.3465 0.938 -118.2117 132.2798)" style="fill:#EACAB9;" width="7.366" height="20.364"/>
			</g>
			<path style="fill:#EACAB9;" d="M350.522,409.251c-1.202-3.255-4.816-4.918-8.07-3.716c-3.255,1.202-4.918,4.816-3.716,8.07
				c1.202,3.255,4.816,4.918,8.07,3.716C350.06,416.119,351.724,412.506,350.522,409.251z"/>
			<path style="fill:#EACAB9;" d="M300.532,427.719c-1.202-3.255-4.816-4.918-8.07-3.716c-3.255,1.202-4.918,4.816-3.716,8.07
				c1.202,3.255,4.816,4.918,8.07,3.716C300.071,434.587,301.735,430.974,300.532,427.719z"/>
			
				<ellipse transform="matrix(0.916 -0.4013 0.4013 0.916 -142.006 163.6734)" style="fill:#F4D8C8;" cx="319.741" cy="420.854" rx="26.863" ry="26.863"/>
			<g>
				<path style="fill:#222937;" d="M337.579,413.906c-0.707-1.914-2.831-2.892-4.745-2.185c-1.914,0.707-2.892,2.831-2.185,4.745
					c0.707,1.914,2.831,2.892,4.745,2.185C337.307,417.944,338.286,415.819,337.579,413.906z"/>
				<path style="fill:#222937;" d="M308.601,424.611c-0.707-1.913-2.831-2.892-4.745-2.185c-1.914,0.707-2.892,2.831-2.185,4.745
					c0.707,1.914,2.831,2.892,4.745,2.185C308.33,428.649,309.308,426.525,308.601,424.611z"/>
			</g>
			<g>
				<path style="fill:#222937;" d="M323.617,415.842c0,0-0.191-0.2-0.497-0.563c-0.076-0.09-0.156-0.196-0.251-0.3
					c-0.103-0.084-0.214-0.175-0.333-0.273c-0.222-0.195-0.463-0.394-0.789-0.571c-0.156-0.089-0.301-0.199-0.474-0.277
					c-0.181-0.064-0.356-0.145-0.536-0.22c-0.173-0.092-0.37-0.137-0.572-0.17c-0.203-0.029-0.391-0.113-0.597-0.135
					c-0.417-0.024-0.833-0.07-1.256,0.006c-0.428-0.004-0.829,0.184-1.247,0.269c0.185-0.079,0.048-0.02,0.088-0.037l-0.006,0.003
					l-0.011,0.006l-0.022,0.011l-0.045,0.021l-0.089,0.042l-0.178,0.085l-0.356,0.169c-0.274,0.11-0.397,0.229-0.546,0.34
					c-0.309,0.181-0.615,0.491-0.913,0.781c-0.144,0.149-0.229,0.337-0.365,0.49c-0.133,0.157-0.253,0.319-0.324,0.501
					c-0.088,0.174-0.17,0.348-0.264,0.515c-0.081,0.171-0.119,0.349-0.18,0.518c-0.133,0.339-0.187,0.666-0.227,0.968
					c-0.026,0.151-0.043,0.294-0.072,0.43c0,0.134-0.001,0.258-0.001,0.37c-0.001,0.455-0.014,0.745-0.014,0.745
					s-0.145-0.22-0.377-0.657c-0.055-0.11-0.123-0.232-0.185-0.37c-0.044-0.141-0.077-0.298-0.12-0.467
					c-0.04-0.173-0.083-0.357-0.129-0.551c-0.039-0.197-0.013-0.404-0.021-0.626c0.006-0.219-0.009-0.457,0.021-0.696
					c0.046-0.235,0.11-0.477,0.171-0.73c0.048-0.259,0.149-0.505,0.27-0.752c0.116-0.249,0.235-0.509,0.394-0.747
					c0.354-0.451,0.677-0.956,1.247-1.345c0.262-0.207,0.539-0.428,0.759-0.512l0.352-0.177l0.176-0.089l0.088-0.044l0.044-0.022
					l0.138-0.061c0.607-0.143,1.203-0.365,1.826-0.328c0.617-0.063,1.207,0.102,1.768,0.217c0.276,0.076,0.535,0.198,0.784,0.312
					c0.253,0.108,0.489,0.229,0.694,0.395c0.21,0.153,0.417,0.294,0.603,0.444c0.178,0.162,0.321,0.352,0.468,0.515
					c0.139,0.174,0.291,0.31,0.393,0.491c0.095,0.182,0.186,0.354,0.271,0.517c0.08,0.16,0.157,0.304,0.215,0.44
					c0.033,0.139,0.063,0.267,0.089,0.382C323.577,415.568,323.617,415.842,323.617,415.842z"/>
			</g>
			<g>
				
					<rect x="309.211" y="363.166" transform="matrix(0.4963 -0.8682 0.8682 0.4963 -153.2346 470.0293)" style="fill:#F4D8C8;" width="38.444" height="7.799"/>
			</g>
			<g>
				
					<rect x="274.544" y="366.312" transform="matrix(0.337 -0.9415 0.9415 0.337 -178.3762 517.7565)" style="fill:#F4D8C8;" width="7.798" height="38.443"/>
			</g>
			<path style="fill:#F4D8C8;" d="M333.051,350.81c-1.244-3.367,0.477-7.105,3.844-8.349c3.367-1.244,7.105,0.477,8.349,3.844
				s-0.477,7.105-3.844,8.349C338.033,355.898,334.295,354.177,333.051,350.81z"/>
			<path style="fill:#F4D8C8;" d="M252.986,380.389c-1.244-3.367,0.477-7.105,3.844-8.349c3.367-1.244,7.105,0.477,8.348,3.844
				c1.244,3.367-0.477,7.105-3.844,8.348C257.968,385.477,254.23,383.756,252.986,380.389z"/>
			<g>
				<g>
					<polygon style="fill:#F4D8C8;" points="291.733,327.738 299.048,325.035 311.23,355.175 301.192,353.342 					"/>
				</g>
				<g>
					
						<rect x="277.526" y="332.447" transform="matrix(0.938 -0.3466 0.3466 0.938 -102.5007 118.9766)" style="fill:#F4D8C8;" width="7.799" height="27.296"/>
				</g>
			</g>
			<g>
				<path style="fill:#F4D8C8;" d="M297.969,332.332c0,0,5.285-10.93,4.829-10.761c-0.456,0.168-12.001,4.434-12.001,4.434
					l3.349,7.196L297.969,332.332z"/>
			</g>
			<g>
				<path style="fill:#F4D8C8;" d="M278.424,339.553c0,0-11.121-4.869-10.666-5.037c0.456-0.168,12.001-4.434,12.001-4.434
					l2.134,7.645L278.424,339.553z"/>
			</g>
			<g>
				<path style="fill:#ED8888;" d="M292.197,329.01c2.2-1.949,5.23-2.979,8.054-1.956c0.065,0.023,0.126,0.052,0.191,0.077
					c1.304-2.791,2.592-5.647,2.357-5.56c-0.456,0.168-12.001,4.434-12.001,4.434L292.197,329.01z"/>
			</g>
			<g>
				<path style="fill:#ED8888;" d="M272.881,337.08c1.874-2.359,5.243-3.561,8.206-3.196l-1.328-3.802
					c0,0-11.545,4.265-12.001,4.434C267.532,334.6,270.171,335.847,272.881,337.08z"/>
			</g>
			<path style="fill:#EACAB9;" d="M283.739,375.435c-5.147-10.057-1.541-19.892,6.904-24.214l0.51-0.261
				c8.445-4.321,18.531-1.493,23.677,8.564l6.212,12.14c5.146,10.057,0.298,17.464-8.146,21.786l-0.51,0.261
				c-8.445,4.321-17.288,3.921-22.435-6.137L283.739,375.435z"/>
			<path style="fill:#222937;" d="M285.656,379.182c11.282-3.15,21.734-8.54,32.568-13.024l-3.394-6.633
				c-5.147-10.057-15.233-12.886-23.677-8.564l-0.51,0.261c-8.445,4.321-12.05,14.157-6.904,24.214L285.656,379.182z"/>
			<g>
				<g>
					<path style="fill:#222937;" d="M296.235,339.924l4.957,13.418l10.038,1.833l-7.058-17.462
						C301.528,338.454,298.88,339.187,296.235,339.924z"/>
				</g>
				<g>
					<path style="fill:#222937;" d="M277.197,345.902l5.3,14.347l7.315-2.703l-5.243-14.192
						C282.093,344.141,279.638,345,277.197,345.902z"/>
				</g>
			</g>
		</g>
		<path style="fill:#ED8888;" d="M319.935,387.323c0,0-15.331-0.421-20.074,8.175c-2.642,1.941-14.813-1.845-14.813-1.845
			l3.215-8.83l-7.014-9.973L316.658,360l4.605,10.387l8.726,3.5C329.989,373.887,324.209,385.331,319.935,387.323z"/>
		<g>
			<g>
				<g>
					
						<rect x="94.643" y="225.726" transform="matrix(0.0909 -0.9959 0.9959 0.0909 -145.5398 312.3929)" style="fill:#B28474;" width="7.366" height="20.364"/>
				</g>
				<path style="fill:#B28474;" d="M69.877,266.377c3.455,0.315,6.512-2.23,6.827-5.686c0.315-3.455-2.23-6.512-5.686-6.827
					c-3.455-0.315-6.512,2.23-6.827,5.686C63.876,263.006,66.421,266.062,69.877,266.377z"/>
				<path style="fill:#B28474;" d="M74.718,213.306c3.455,0.315,6.512-2.23,6.827-5.686c0.315-3.455-2.23-6.512-5.686-6.827
					c-3.455-0.315-6.512,2.23-6.827,5.686C68.717,209.934,71.263,212.991,74.718,213.306z"/>
				
					<ellipse transform="matrix(0.9995 -0.033 0.033 0.9995 -7.6646 2.5231)" style="fill:#C69783;" cx="72.649" cy="233.6" rx="26.863" ry="26.863"/>
				<g>
					<path style="fill:#222937;" d="M71.245,252.691c2.031,0.185,3.829-1.311,4.014-3.343c0.185-2.032-1.311-3.829-3.343-4.014
						c-2.032-0.185-3.829,1.311-4.014,3.343C67.717,250.709,69.213,252.506,71.245,252.691z"/>
					<path style="fill:#222937;" d="M74.051,221.927c2.032,0.185,3.828-1.311,4.014-3.343c0.185-2.031-1.311-3.829-3.343-4.014
						c-2.032-0.185-3.829,1.311-4.014,3.343C70.523,219.944,72.02,221.741,74.051,221.927z"/>
				</g>
				<path style="fill:#FFFFFF;" d="M77.075,226.858l-1.285,14.087c3.89,0.355,7.331-2.511,7.686-6.401
					C83.831,230.654,80.965,227.213,77.075,226.858z"/>
				<g>
					<polygon style="fill:#C69783;" points="131.625,278.162 125.217,282.608 104.512,247.992 110.92,243.546 					"/>
				</g>
				<g>
					<polygon style="fill:#C69783;" points="138.688,200.739 111.467,232.072 105.969,226.541 133.19,195.208 					"/>
				</g>
				<path style="fill:#C69783;" d="M130.148,275.757c3.574,0.326,6.208,3.488,5.882,7.063c-0.326,3.574-3.488,6.208-7.063,5.882
					c-3.574-0.326-6.208-3.488-5.882-7.063C123.412,278.064,126.574,275.43,130.148,275.757z"/>
				
					<ellipse transform="matrix(0.7738 -0.6334 0.6334 0.7738 -93.8684 131.5847)" style="fill:#C69783;" cx="137.312" cy="197.228" rx="6.499" ry="6.499"/>
				<g>
					<g>
						
							<rect x="150.91" y="237.384" transform="matrix(0.0908 -0.9959 0.9959 0.0908 -109.2485 382.3958)" style="fill:#C69783;" width="7.799" height="27.296"/>
					</g>
					<g>
						
							<rect x="152.721" y="217.537" transform="matrix(0.0909 -0.9959 0.9959 0.0909 -87.8387 366.1513)" style="fill:#C69783;" width="7.799" height="27.296"/>
					</g>
				</g>
				<g>
					<path style="fill:#C69783;" d="M161.924,252.041c0,0,7.592,9.474,7.636,8.99c0.044-0.484,1.162-12.741,1.162-12.741
						l-7.937-0.074L161.924,252.041z"/>
				</g>
				<g>
					<path style="fill:#C69783;" d="M163.817,231.29c0,0,9.181-7.944,9.137-7.46c-0.044,0.484-1.162,12.741-1.162,12.741
						l-7.819-1.364L163.817,231.29z"/>
				</g>
				<path style="fill:#B28474;" d="M131.624,224.04c11.298,0,18.583,4.669,18.583,14.155v0.572c0,9.486-7.113,17.176-18.41,17.176
					h-13.637c-11.297,0-15.683-7.69-15.683-17.176v-0.572c0-9.486,4.385-17.176,15.683-17.176L131.624,224.04z"/>
			</g>
			<path style="fill:#222937;" d="M58.926,221.463c0,0,17.379,21.825,0,41.225l-2.425-6.871c0,0-2.829,7.275-16.975,9.7
				c0,0,10.104-6.871,4.85-14.55c-5.254-7.679-13.338-25.058,6.871-35.566c0,0,2.027-14.611,17.786-8.922l6.057,0.37l-0.402,2.894
				l-6.871,0.808C67.817,210.551,65.796,220.655,58.926,221.463z"/>
			<path style="fill:#FFD45A;" d="M104.192,229.344c0,0,6.669,7.578-1.213,15.156c0,0,0,3.031,5.153,10.609l6.669,12.125
				l8.184-4.547l-4.826-6.744l14.526,0.985l1.819-36.375l-12.731,0.303l6.062-7.275l-7.578-5.153l-11.215,12.428
				C109.042,220.857,104.495,226.01,104.192,229.344z"/>
		</g>
		<g>
			<g>
				
					<rect x="393.226" y="222.693" transform="matrix(0.9677 -0.2523 0.2523 0.9677 -44.0602 109.0894)" style="fill:#EACAB9;" width="20.364" height="7.366"/>
			</g>
			<path style="fill:#EACAB9;" d="M419.837,188.063c-3.357,0.875-5.37,4.307-4.494,7.664c0.875,3.357,4.307,5.37,7.664,4.494
				c3.357-0.875,5.37-4.307,4.494-7.664C426.626,189.2,423.195,187.188,419.837,188.063z"/>
			<path style="fill:#EACAB9;" d="M433.281,239.631c-3.358,0.875-5.37,4.307-4.494,7.664c0.875,3.357,4.307,5.37,7.664,4.494
				c3.357-0.875,5.37-4.307,4.494-7.664C440.07,240.768,436.639,238.756,433.281,239.631z"/>
			
				<ellipse transform="matrix(0.6866 -0.727 0.727 0.6866 -25.59 380.3105)" style="fill:#F4D8C8;" cx="428.345" cy="219.838" rx="26.863" ry="26.863"/>
			<g>
				<path style="fill:#222937;" d="M423.192,201.402c-1.974,0.515-3.157,2.532-2.642,4.506c0.515,1.974,2.532,3.157,4.506,2.642
					c1.974-0.515,3.157-2.532,2.642-4.506C427.183,202.071,425.166,200.888,423.192,201.402z"/>
				<path style="fill:#222937;" d="M430.985,231.295c-1.974,0.515-3.157,2.532-2.642,4.506c0.515,1.974,2.532,3.157,4.506,2.642
					c1.974-0.515,3.157-2.532,2.642-4.506C434.976,231.964,432.959,230.781,430.985,231.295z"/>
			</g>
			<path style="fill:#FFFFFF;" d="M426.468,227.682l-3.569-13.689c-3.78,0.985-6.045,4.849-5.06,8.629
				C418.825,226.402,422.688,228.667,426.468,227.682z"/>
			<g>
				<polygon style="fill:#F4D8C8;" points="357.752,197.919 362.272,191.563 393.49,217.105 388.97,223.461 				"/>
			</g>
			<g>
				<polygon style="fill:#F4D8C8;" points="377.365,273.148 392.346,234.44 399.394,237.779 384.413,276.487 				"/>
			</g>
			<path style="fill:#F4D8C8;" d="M359.957,199.68c-3.473,0.906-7.023-1.176-7.928-4.649c-0.905-3.473,1.176-7.023,4.649-7.928
				s7.023,1.176,7.928,4.649C365.512,195.225,363.43,198.775,359.957,199.68z"/>
			
				<ellipse transform="matrix(0.9665 -0.2567 0.2567 0.9665 -58.1121 106.7429)" style="fill:#F4D8C8;" cx="379.85" cy="275.985" rx="6.499" ry="6.499"/>
			<g>
				<g>
					
						<rect x="331.494" y="227.404" transform="matrix(0.9677 -0.2523 0.2523 0.9677 -47.1877 94.5495)" style="fill:#F4D8C8;" width="27.296" height="7.799"/>
				</g>
				<g>
					
						<rect x="336.522" y="246.689" transform="matrix(0.9677 -0.2523 0.2523 0.9677 -51.892 96.4466)" style="fill:#F4D8C8;" width="27.296" height="7.799"/>
				</g>
			</g>
			<g>
				<path style="fill:#F4D8C8;" d="M338.107,232.767c0,0-10.355-6.338-10.232-5.868c0.123,0.47,3.228,12.38,3.228,12.38l7.491-2.622
					L338.107,232.767z"/>
			</g>
			<g>
				<path style="fill:#F4D8C8;" d="M343.364,252.93c0,0-8.28,10.965-8.402,10.495c-0.123-0.47-0.89-12.758-0.89-12.758l7.818-1.369
					L343.364,252.93z"/>
			</g>
			<g>
				<path style="fill:#8B9CC1;" d="M332.911,233.595c-0.126-1.195,0.073-2.459,0.52-3.649c-2.727-1.623-5.621-3.296-5.556-3.046
					c0.123,0.47,3.228,12.38,3.228,12.38l3.705-1.297C333.787,236.85,333.099,235.385,332.911,233.595z"/>
			</g>
			<g>
				<path style="fill:#8B9CC1;" d="M336.631,253.359c-0.11-1.047,0.028-2.146,0.363-3.204l-2.923,0.512
					c0,0,0.768,12.288,0.89,12.758c0.061,0.234,2.146-2.369,4.224-5.042C337.807,257.186,336.857,255.509,336.631,253.359z"/>
			</g>
			<path style="fill:#EACAB9;" d="M376.107,248.833c-10.628,3.831-9.885-0.997-13.102-9.921l-0.194-0.539
				c-3.217-8.924-8.313-15.664,2.315-19.495l12.829-4.625c10.628-3.831,17.362,1.916,20.579,10.84l0.194,0.539
				c3.217,8.924,1.7,17.646-8.928,21.477L376.107,248.833z"/>
			<path style="fill:#B28474;" d="M445.372,226.602c0,0-23.751-14.637-13.981-38.781l4.611,5.641c0,0,0.194-7.803,12.679-14.882
				c0,0-7.175,9.89,0.372,15.332c7.547,5.442,21.045,19.05,5.599,35.789c0,0,3.048,14.432-13.706,14.425l-5.824,1.706l-0.603-2.859
				l6.189-3.091C440.708,239.883,439.182,229.692,445.372,226.602z"/>
			<path style="fill:#8B9CC1;" d="M400.115,234.539c0,0-8.844-4.867-3.999-14.669c0,0,0.412-2.725-7.006-8.107l-9.189-8.563
				l-7.936,8.98l3.341,2.715l-11.904,2.297l11.158,35.896l10.561-4.152l-1.671,4.803l10.651,3.968l4.309-13.54
				C398.431,244.169,400.961,237.779,400.115,234.539z"/>
		</g>
		<polygon style="fill:#ED8888;" points="134.504,222.221 159.815,222.827 159.057,236.468 150.873,236.316 149.509,246.319 
			158.148,246.925 157.39,257.686 132.837,255.716 		"/>
		<polygon style="fill:#222937;" points="373.865,251.025 356.199,256.456 351.728,242.463 355.487,241.419 354.234,236.198 
			350.266,236.824 346.298,223.667 364.29,218.77 		"/>
		<path style="fill:#FCB64F;" d="M80.1,329.772c0,0,26.432,15.744,10.544,44.921C90.644,374.693,60.456,363.86,80.1,329.772z"/>
		<path style="fill:#FCB64F;" d="M90.644,374.693c0,0,16.61-11.988,28.021-1.3C118.665,373.393,104.365,383.215,90.644,374.693z"/>
		<path style="fill:#FF9E78;" d="M296.978,434.457c0,0,23.325-8.741,32.073,11.594C329.051,446.052,306.678,454.666,296.978,434.457
			z"/>
		<path style="fill:#FF9E78;" d="M346.806,417.321c0,0-24.886,5.97-17.755,28.73C329.051,446.052,348.538,442.622,346.806,417.321z"
			/>
		<path style="fill:#62AF8F;" d="M324.317,314.026l19.433-30.769l35.897,21.322l-0.27-2.699l10.256,0.54
			c0,0,4.048,10.526-2.429,22.132c0,0-7.017,0-4.588,7.017c0,0-2.969,9.986-18.353,12.685l-6.747-7.827l3.286-2.148L324.317,314.026
			z"/>
		<polygon style="fill:#FFD45A;" points="345.846,326.219 365.842,296.224 369.563,298.782 351.194,329.009 		"/>
	</g>
</g>
</svg>
